# Blender 5.2.0 LTS
# www.blender.org
mtllib biped.mtl
o Cube
v -0.607700 2.184162 0.361660
v -0.330979 2.679187 0.330479
v -0.607700 2.184162 -0.361660
v -0.330979 2.679187 -0.190362
v 0.607700 2.184162 0.361660
v 0.330979 2.679187 0.330479
v 0.607700 2.184162 -0.361660
v 0.330979 2.679187 -0.190362
v -0.422976 3.718771 0.128876
v -0.422976 3.718771 -0.239677
v 0.422976 3.718771 -0.239677
v 0.422976 3.718771 0.128876
v 0.366398 3.050088 0.383506
v -0.366398 3.050088 0.383506
v 0.414346 3.499077 0.312237
v -0.414346 3.499077 0.312237
v 0.074521 1.998608 -0.361660
v -0.074521 1.998608 -0.361660
v -0.061383 2.272883 -0.291513
v 0.061383 2.272883 -0.291513
v -0.074521 1.998608 0.361660
v 0.074521 1.998608 0.361660
v 0.060433 2.304896 0.382663
v -0.060433 2.304896 0.382663
v 0.109126 0.035774 0.181301
v 0.398320 0.035774 -0.211471
v 0.398320 0.035774 0.181301
v -0.109126 0.035774 -0.211471
v -0.398320 0.035774 0.181301
v -0.398320 0.035774 -0.211471
v -0.403078 3.525439 -0.294971
v -0.332722 3.042475 -0.242667
v 0.403078 3.525439 -0.294971
v 0.332722 3.042475 -0.242667
v -0.109126 0.035774 0.181301
v 0.109126 0.035774 -0.211471
v -0.509207 1.249126 -0.222476
v -0.509207 1.432739 0.235059
v -0.061649 1.110881 -0.222476
v 0.509207 1.432739 0.235059
v 0.509207 1.249126 -0.222476
v 0.061649 1.294494 0.235059
v 0.061649 1.110881 -0.222476
v -0.061649 1.294494 0.235059
v -0.398320 0.308147 -0.211471
v -0.398320 0.308147 0.109349
v -0.109126 0.308147 -0.211471
v 0.398320 0.308147 0.109349
v 0.398320 0.308147 -0.211471
v 0.109126 0.308147 0.109349
v 0.109126 0.308147 -0.211471
v -0.109126 0.308147 0.109349
v 0.402649 0.915719 -0.299168
v 0.078636 0.915719 -0.299168
v 0.402649 1.074897 0.254398
v 0.078636 1.074897 0.254398
v -0.402649 0.915719 -0.299168
v -0.402649 1.074897 0.254398
v -0.078636 1.074897 0.254398
v -0.078636 0.915719 -0.299168
v -0.348009 3.869434 0.285278
v -0.348009 4.565453 0.285278
v -0.348009 3.869434 -0.410741
v -0.348009 4.565453 -0.410741
v 0.348009 3.869434 0.285278
v 0.348009 4.565453 0.285278
v 0.348009 3.869434 -0.410741
v 0.348009 4.565453 -0.410741
v -0.109638 3.718771 0.098615
v -0.109638 3.718771 -0.160704
v 0.109638 3.718771 -0.160704
v 0.109638 3.718771 0.098615
v -0.109638 3.980844 0.098615
v -0.109638 3.980844 -0.160704
v 0.109638 3.980844 -0.160704
v 0.109638 3.980844 0.098615
v -0.415844 3.718771 0.054954
v -0.415844 3.718771 -0.156362
v -0.415844 3.507864 0.062625
v -0.415844 3.509025 -0.153415
v 0.415844 3.718771 -0.156362
v 0.415844 3.718771 0.054954
v 0.415844 3.507864 0.062625
v 0.415844 3.509025 -0.153415
v -0.410590 3.281201 0.102161
v -0.406834 3.289988 -0.125319
v 0.410590 3.281201 0.102161
v 0.406834 3.289988 -0.125319
v -0.970738 3.726696 0.054954
v -0.970738 3.726696 -0.156362
v -0.970738 3.563328 0.062625
v -0.970738 3.564227 -0.153415
v 0.970738 3.726696 -0.156362
v 0.970738 3.726696 0.054954
v 0.970738 3.563328 0.062625
v 0.970738 3.564227 -0.153415
v -1.384473 3.737569 0.054954
v -1.384473 3.737569 -0.156362
v -1.384473 3.488962 0.062625
v -1.384473 3.490330 -0.153415
v 1.384473 3.737569 -0.156362
v 1.384473 3.737569 0.054954
v 1.384473 3.488962 0.062625
v 1.384473 3.490330 -0.153415
v -1.390930 3.790066 0.116877
v -1.390930 3.790066 -0.221476
v -1.390930 3.436175 0.129159
v -1.390930 3.438123 -0.216758
v 1.390930 3.790066 -0.221476
v 1.390930 3.790066 0.116877
v 1.390930 3.436175 0.129159
v 1.390930 3.438123 -0.216758
v -1.740284 3.790066 0.116877
v -1.740284 3.790066 -0.221476
v -1.740284 3.436175 0.129159
v -1.740284 3.438123 -0.216758
v 1.740284 3.790066 -0.221476
v 1.740284 3.790066 0.116877
v 1.740284 3.436175 0.129159
v 1.740284 3.438123 -0.216758
vn -0.8729 0.4879 -0.0000
vn -0.0846 0.2431 -0.9663
vn 0.8729 0.4879 -0.0000
vn -0.0234 -0.0673 0.9975
vn 0.9999 0.0136 -0.0055
vn -0.0000 0.2554 0.9668
vn -0.0000 -0.0000 -1.0000
vn -1.0000 -0.0000 -0.0000
vn -0.0000 0.1568 0.9876
vn -0.0000 0.6408 0.7677
vn -0.0000 -0.1077 -0.9942
vn -0.0000 0.2750 -0.9614
vn 0.0604 -0.1735 0.9830
vn -0.0000 -1.0000 -0.0000
vn 0.0234 -0.0673 0.9975
vn -0.0000 -0.0684 0.9977
vn 0.0846 0.2431 -0.9663
vn -0.0000 0.2478 -0.9688
vn -0.0000 -0.1425 -0.9898
vn -0.0000 -0.1415 0.9899
vn -0.0000 0.2416 -0.9704
vn 1.0000 -0.0000 -0.0000
vn -1.0000 -0.0048 -0.0000
vn -0.9954 -0.0035 -0.0960
vn 0.9948 -0.0875 -0.0524
vn 0.9954 -0.0035 -0.0960
vn 1.0000 -0.0071 -0.0000
vn -0.0000 -0.1429 -0.9897
vn -0.0549 -0.1777 0.9826
vn 0.0480 -0.1554 -0.9867
vn -0.0531 -0.1525 -0.9869
vn -0.9915 -0.1300 -0.0000
vn -0.9998 0.0183 -0.0000
vn 0.9943 -0.0988 0.0397
vn -1.0000 -0.0060 0.0017
vn -0.9990 -0.0420 0.0121
vn -0.0000 -0.1859 0.9826
vn 0.9987 -0.0501 -0.0000
vn -0.0183 0.0594 0.9981
vn -0.9968 -0.0745 0.0299
vn -0.0000 0.3657 -0.9307
vn 0.9421 -0.3224 0.0927
vn 0.9948 -0.0976 0.0281
vn 0.0762 0.2466 -0.9661
vn -0.0000 0.0877 0.9961
vn -0.9541 -0.2781 0.1116
vn -0.0000 0.1381 0.9904
vn -0.0000 -0.0000 1.0000
vn -0.0000 1.0000 -0.0000
vn -0.9964 0.0012 0.0853
vn 0.0995 -0.9950 -0.0053
vn 0.9924 -0.0741 -0.0981
vn -0.0007 0.0469 0.9989
vn 0.9992 -0.0411 -0.0002
vn -0.9995 -0.0262 -0.0175
vn -0.9534 -0.1662 -0.2517
vn -0.9610 -0.2752 -0.0265
vn -0.9925 -0.0934 0.0791
vn 0.9925 -0.0934 0.0791
vn 0.9683 -0.2449 -0.0491
vn 0.9534 -0.1662 -0.2517
vn 0.1758 -0.9844 -0.0041
vn -0.0055 0.0308 0.9995
vn -0.0143 0.9999 -0.0000
vn 0.0036 0.0363 0.9993
vn -0.0990 -0.9951 -0.0041
vn 0.0143 0.9999 -0.0000
vn 0.0014 -0.0140 -0.9999
vn -0.0003 -0.0181 -0.9998
vn -0.9925 -0.1223 -0.0007
vn -0.9949 0.0031 0.1011
vn -0.0021 -0.0119 -0.9999
vn -0.0263 0.9997 -0.0000
vn -0.0005 -0.0181 -0.9998
vn 0.0263 0.9997 -0.0000
vn -0.0012 0.0469 0.9989
vn -0.1769 -0.9842 -0.0062
vn -0.0000 -1.0000 -0.0056
vn -0.0000 0.0347 0.9994
vn 0.9951 0.0034 0.0993
vn 0.9926 -0.1218 -0.0008
vn -0.9949 -0.0012 -0.1004
vn -0.9925 0.1221 -0.0000
vn 0.9950 -0.0013 -0.0997
vn 0.9925 0.1221 -0.0000
vn -0.0000 -0.0134 -0.9999
vn -0.0758 0.2880 -0.9546
vn -0.0592 0.0957 0.9936
vn 0.9998 0.0183 -0.0000
vn 0.0549 -0.1777 0.9826
vn 0.0592 0.0957 0.9936
vn 0.0758 0.2880 -0.9546
vn -0.9948 -0.0875 -0.0524
vn -0.9994 -0.0353 0.0048
vn 1.0000 -0.0048 -0.0000
vn 0.9994 -0.0353 0.0048
vn 1.0000 -0.0060 0.0017
vn -0.0604 -0.1735 0.9830
vn 0.0531 -0.1525 -0.9869
vn -0.0480 -0.1554 -0.9867
vn -0.9943 -0.0988 0.0397
vn -0.9999 0.0136 -0.0055
vn 0.9915 -0.1300 -0.0000
vn -1.0000 -0.0071 -0.0000
vn -0.9987 -0.0501 -0.0000
vn 0.9990 -0.0420 0.0121
vn -0.9948 -0.0976 0.0281
vn -0.0762 0.2466 -0.9661
vn 0.9541 -0.2781 0.1116
vn 0.9968 -0.0745 0.0299
vn 0.0183 0.0594 0.9981
vn -0.9421 -0.3224 0.0927
vn -0.9924 -0.0741 -0.0981
vn 0.0990 -0.9951 -0.0041
vn 0.9964 0.0012 0.0853
vn -0.0036 0.0363 0.9993
vn 0.9995 -0.0262 -0.0175
vn -0.9992 -0.0411 -0.0002
vn -0.9940 -0.0532 -0.0958
vn -0.9683 -0.2449 -0.0491
vn -0.9997 -0.0223 0.0052
vn 0.9997 -0.0223 0.0052
vn 0.9610 -0.2752 -0.0265
vn 0.9940 -0.0532 -0.0958
vn 0.1769 -0.9842 -0.0062
vn 0.0012 0.0469 0.9989
vn 0.0007 0.0469 0.9989
vn -0.0995 -0.9950 -0.0053
vn 0.0003 -0.0181 -0.9998
vn -0.0014 -0.0140 -0.9999
vn -0.9926 -0.1218 -0.0008
vn -0.9951 0.0034 0.0993
vn 0.0005 -0.0181 -0.9998
vn 0.0021 -0.0119 -0.9999
vn 0.0055 0.0308 0.9995
vn -0.1758 -0.9844 -0.0041
vn 0.9949 0.0031 0.1011
vn 0.9925 -0.1223 -0.0007
vn -0.9950 -0.0013 -0.0997
vn 0.9949 -0.0012 -0.1004
vt 0.312500 0.500000
vt 0.250000 0.531250
vt 0.250000 0.500000
vt 0.546875 0.515625
vt 0.500000 0.500000
vt 0.546875 0.500000
vt 0.500000 0.531250
vt 0.437500 0.500000
vt 0.359375 0.515625
vt 0.359375 0.500000
vt 0.812500 0.953126
vt 0.437500 0.640625
vt 0.312500 0.578125
vt 0.437500 0.578125
vt 0.312500 0.640625
vt 0.437500 0.687500
vt 0.312500 0.687500
vt 0.625000 0.640625
vt 0.500000 0.578125
vt 0.625000 0.578125
vt 0.625000 0.687500
vt 0.500000 0.640625
vt 0.390625 0.515625
vt 0.390625 0.500000
vt 0.625000 0.500000
vt 0.578125 0.515625
vt 0.578125 0.500000
vt 0.625000 0.531250
vt 0.437500 0.531250
vt 0.312500 0.531250
vt 0.250000 0.578125
vt 0.296875 0.640625
vt 0.296875 0.687500
vt 0.453125 0.640625
vt 0.453125 0.687500
vt 0.128992 0.873254
vt 0.005830 0.750092
vt 0.128992 0.750092
vt 0.498478 0.873254
vt 0.375316 0.750092
vt 0.498478 0.750092
vt 0.375316 0.873254
vt 0.252154 0.750092
vt 0.252154 0.873254
vt 0.253853 0.997545
vt 0.375124 0.876274
vt 0.375124 0.997545
vt 0.128992 0.996416
vt 0.252154 0.996416
vt 0.375000 0.718750
vt 0.375000 0.718750
vt 0.250000 0.687500
vt 0.265625 0.640625
vt 0.265625 0.687500
vt 0.625128 0.687500
vt 0.687211 0.625000
vt 0.687211 0.687500
vt 0.500000 0.687500
vt 0.484375 0.640625
vt 0.750703 0.687500
vt 0.750703 0.625000
vt 0.437500 0.703125
vt 0.390625 0.734375
vt 0.390625 0.703125
vt 0.359375 0.734375
vt 0.312500 0.703125
vt 0.359375 0.703125
vt 0.437500 0.734375
vt 0.437500 0.750000
vt 0.312500 0.734375
vt 0.312500 0.750000
vt 0.484375 0.609375
vt 0.265625 0.609375
vt 0.296875 0.609375
vt 0.250000 0.640625
vt 0.453125 0.609375
vt 0.625129 0.562897
vt 0.625128 0.625000
vt 0.750703 0.562897
vt 0.687211 0.562897
vt 0.812581 0.625000
vt 0.812581 0.687500
vt 0.873882 0.625000
vt 0.873882 0.687500
vt 0.625129 0.562103
vt 0.687211 0.562103
vt 0.750703 0.562103
vt 0.812581 0.562897
vt 0.873882 0.562897
vt 0.687211 0.500000
vt 0.750703 0.500000
vt 0.873882 0.562103
vt 0.812581 0.562103
vt 0.750000 0.687500
vt 0.812500 0.750000
vt 0.750000 0.750000
vt 0.812500 0.687500
vt 0.625128 0.500000
vt 0.873882 0.500000
vt 0.812581 0.500000
vt 0.005830 0.873254
vt 0.253853 0.876274
vt 0.484375 0.687500
s 0
usemtl Material.001
f 1/1/1 4/2/1 3/3/1
f 20/4/2 7/5/2 17/6/2
f 8/7/3 5/8/3 7/5/3
f 24/9/4 1/1/4 21/10/4
f 18/11/5 44/11/5 39/11/5
f 46/11/6 35/11/6 52/11/6
f 47/11/7 30/11/7 45/11/7
f 46/11/8 30/11/8 29/11/8
f 15/12/9 14/13/9 13/14/9
f 16/15/10 12/16/10 9/17/10
f 31/18/11 34/19/11 32/20/11
f 50/11/8 36/11/8 25/11/8
f 10/21/12 33/22/12 31/18/12
f 50/11/6 27/11/6 48/11/6
f 22/11/13 40/11/13 5/11/13
f 17/11/14 21/11/14 18/11/14
f 5/8/15 23/23/15 22/24/15
f 23/23/16 21/10/16 22/24/16
f 3/25/17 19/26/17 18/27/17
f 18/27/18 20/4/18 17/6/18
f 32/20/19 8/7/19 4/28/19
f 28/11/14 29/11/14 30/11/14
f 6/29/20 14/13/20 2/30/20
f 19/26/21 8/7/21 20/4/21
f 26/11/14 25/11/14 36/11/14
f 48/11/22 26/11/22 49/11/22
f 2/30/23 32/31/23 4/2/23
f 79/32/24 9/17/24 77/33/24
f 6/29/25 34/19/25 13/14/25
f 12/16/26 83/34/26 82/35/26
f 53/11/27 48/11/27 49/11/27
f 53/11/28 51/11/28 54/11/28
f 21/11/29 38/11/29 44/11/29
f 17/11/30 41/11/30 43/11/30
f 18/11/31 37/11/31 3/11/31
f 3/11/32 38/11/32 1/11/32
f 17/11/33 42/11/33 22/11/33
f 7/11/34 40/11/34 41/11/34
f 49/11/7 36/11/7 51/11/7
f 52/11/22 28/11/22 47/11/22
f 57/11/35 46/11/35 58/11/35
f 54/11/36 50/11/36 56/11/36
f 58/11/37 52/11/37 59/11/37
f 55/11/37 50/11/37 48/11/37
f 57/11/28 47/11/28 45/11/28
f 60/11/38 52/11/38 47/11/38
f 42/11/39 55/11/39 40/11/39
f 43/11/40 56/11/40 42/11/40
f 43/11/41 53/11/41 54/11/41
f 41/11/42 55/11/42 53/11/42
f 39/11/43 59/11/43 60/11/43
f 39/11/44 57/11/44 37/11/44
f 44/11/45 58/11/45 59/11/45
f 37/11/46 58/11/46 38/11/46
f 23/23/47 2/30/47 24/9/47
f 62/36/8 63/37/8 61/38/8
f 64/39/7 67/40/7 63/41/7
f 68/42/22 65/43/22 67/40/22
f 66/44/48 61/38/48 65/43/48
f 67/45/14 61/46/14 63/47/14
f 64/48/49 66/44/49 68/49/49
f 72/50/48 73/50/48 69/50/48
f 1/1/1 2/30/1 4/2/1
f 71/50/22 76/50/22 72/50/22
f 70/50/7 75/50/7 71/50/7
f 69/50/8 74/51/8 70/50/8
f 10/52/50 80/53/50 78/54/50
f 84/55/51 95/56/51 83/57/51
f 11/58/52 84/59/52 33/22/52
f 82/60/53 95/56/53 94/61/53
f 82/62/49 71/63/49 72/64/49
f 70/65/49 77/66/49 69/67/49
f 77/66/49 9/17/49 69/67/49
f 82/62/49 72/64/49 12/16/49
f 12/16/49 69/67/49 9/17/49
f 81/68/49 11/69/49 71/63/49
f 78/70/49 70/65/49 10/71/49
f 10/71/49 71/63/49 11/69/49
f 83/34/54 88/72/54 84/59/54
f 79/32/55 86/73/55 85/74/55
f 86/73/56 31/75/56 32/31/56
f 32/31/57 85/74/57 86/73/57
f 16/15/58 85/74/58 14/13/58
f 87/76/59 15/12/59 13/14/59
f 34/19/60 87/76/60 13/14/60
f 33/22/61 88/72/61 34/19/61
f 91/56/62 100/77/62 92/78/62
f 91/56/63 97/79/63 99/80/63
f 82/60/64 93/81/64 81/82/64
f 77/60/65 91/56/65 79/57/65
f 80/55/66 91/56/66 92/78/66
f 78/82/67 89/61/67 77/60/67
f 81/82/68 96/83/68 84/84/68
f 78/82/69 92/83/69 90/81/69
f 103/80/70 112/85/70 111/86/70
f 103/80/71 110/87/71 102/79/71
f 96/83/72 101/88/72 104/89/72
f 94/61/73 101/88/73 93/81/73
f 92/83/74 98/88/74 90/81/74
f 90/81/75 97/79/75 89/61/75
f 95/56/76 102/79/76 94/61/76
f 95/56/77 104/77/77 103/80/77
f 112/85/78 119/90/78 111/86/78
f 111/86/79 118/91/79 110/87/79
f 99/80/80 105/87/80 107/86/80
f 99/80/81 108/85/81 100/77/81
f 101/88/82 112/92/82 104/89/82
f 101/88/83 110/87/83 109/93/83
f 98/88/84 108/92/84 106/93/84
f 98/88/85 105/87/85 97/79/85
f 116/94/8 113/95/8 114/96/8
f 118/96/22 120/97/22 117/95/22
f 105/87/79 115/90/79 107/86/79
f 107/86/78 116/98/78 108/85/78
f 109/93/86 120/99/86 112/92/86
f 110/87/49 117/100/49 109/93/49
f 108/92/86 114/100/86 106/93/86
f 106/93/49 113/91/49 105/87/49
f 20/4/87 8/7/87 7/5/87
f 8/7/3 6/29/3 5/8/3
f 24/9/88 2/30/88 1/1/88
f 18/11/89 21/11/89 44/11/89
f 46/11/6 29/11/6 35/11/6
f 47/11/7 28/11/7 30/11/7
f 46/11/8 45/11/8 30/11/8
f 15/12/9 16/15/9 14/13/9
f 16/15/10 15/12/10 12/16/10
f 31/18/11 33/22/11 34/19/11
f 50/11/8 51/11/8 36/11/8
f 10/21/12 11/58/12 33/22/12
f 50/11/6 25/11/6 27/11/6
f 22/11/90 42/11/90 40/11/90
f 17/11/14 22/11/14 21/11/14
f 5/8/91 6/29/91 23/23/91
f 23/23/16 24/9/16 21/10/16
f 3/25/92 4/28/92 19/26/92
f 18/27/18 19/26/18 20/4/18
f 32/20/19 34/19/19 8/7/19
f 28/11/14 35/11/14 29/11/14
f 6/29/20 13/14/20 14/13/20
f 19/26/21 4/28/21 8/7/21
f 26/11/14 27/11/14 25/11/14
f 48/11/22 27/11/22 26/11/22
f 2/30/93 14/13/93 32/31/93
f 79/32/94 16/15/94 9/17/94
f 6/29/95 8/7/95 34/19/95
f 12/16/96 15/12/96 83/34/96
f 53/11/97 55/11/97 48/11/97
f 53/11/28 49/11/28 51/11/28
f 21/11/98 1/11/98 38/11/98
f 17/11/99 7/11/99 41/11/99
f 18/11/100 39/11/100 37/11/100
f 3/11/101 37/11/101 38/11/101
f 17/11/102 43/11/102 42/11/102
f 7/11/103 5/11/103 40/11/103
f 49/11/7 26/11/7 36/11/7
f 52/11/22 35/11/22 28/11/22
f 57/11/104 45/11/104 46/11/104
f 54/11/105 51/11/105 50/11/105
f 58/11/37 46/11/37 52/11/37
f 55/11/37 56/11/37 50/11/37
f 57/11/28 60/11/28 47/11/28
f 60/11/106 59/11/106 52/11/106
f 42/11/45 56/11/45 55/11/45
f 43/11/107 54/11/107 56/11/107
f 43/11/108 41/11/108 53/11/108
f 41/11/109 40/11/109 55/11/109
f 39/11/110 44/11/110 59/11/110
f 39/11/41 60/11/41 57/11/41
f 44/11/111 38/11/111 58/11/111
f 37/11/112 57/11/112 58/11/112
f 23/23/47 6/29/47 2/30/47
f 62/36/8 64/101/8 63/37/8
f 64/39/7 68/42/7 67/40/7
f 68/42/22 66/44/22 65/43/22
f 66/44/48 62/36/48 61/38/48
f 67/45/14 65/102/14 61/46/14
f 64/48/49 62/36/49 66/44/49
f 72/50/48 76/50/48 73/50/48
f 71/50/22 75/50/22 76/50/22
f 70/50/7 74/51/7 75/50/7
f 69/50/8 73/50/8 74/51/8
f 10/52/113 31/75/113 80/53/113
f 84/55/114 96/78/114 95/56/114
f 11/58/115 81/103/115 84/59/115
f 82/60/116 83/57/116 95/56/116
f 82/62/49 81/68/49 71/63/49
f 70/65/49 78/70/49 77/66/49
f 12/16/49 72/64/49 69/67/49
f 10/71/49 70/65/49 71/63/49
f 83/34/117 87/76/117 88/72/117
f 79/32/118 80/53/118 86/73/118
f 86/73/119 80/53/119 31/75/119
f 32/31/120 14/13/120 85/74/120
f 16/15/121 79/32/121 85/74/121
f 87/76/122 83/34/122 15/12/122
f 34/19/123 88/72/123 87/76/123
f 33/22/124 84/59/124 88/72/124
f 91/56/125 99/80/125 100/77/125
f 91/56/126 89/61/126 97/79/126
f 82/60/64 94/61/64 93/81/64
f 77/60/127 89/61/127 91/56/127
f 80/55/128 79/57/128 91/56/128
f 78/82/67 90/81/67 89/61/67
f 81/82/129 93/81/129 96/83/129
f 78/82/130 80/84/130 92/83/130
f 103/80/131 104/77/131 112/85/131
f 103/80/132 111/86/132 110/87/132
f 96/83/133 93/81/133 101/88/133
f 94/61/73 102/79/73 101/88/73
f 92/83/134 100/89/134 98/88/134
f 90/81/75 98/88/75 97/79/75
f 95/56/135 103/80/135 102/79/135
f 95/56/136 96/78/136 104/77/136
f 112/85/78 120/98/78 119/90/78
f 111/86/79 119/90/79 118/91/79
f 99/80/137 97/79/137 105/87/137
f 99/80/138 107/86/138 108/85/138
f 101/88/139 109/93/139 112/92/139
f 101/88/83 102/79/83 110/87/83
f 98/88/140 100/89/140 108/92/140
f 98/88/85 106/93/85 105/87/85
f 116/94/8 115/97/8 113/95/8
f 118/96/22 119/94/22 120/97/22
f 105/87/79 113/91/79 115/90/79
f 107/86/78 115/90/78 116/98/78
f 109/93/86 117/100/86 120/99/86
f 110/87/49 118/91/49 117/100/49
f 108/92/86 116/99/86 114/100/86
f 106/93/49 114/100/49 113/91/49
